<svg width="94.981384" height="32.000000" viewBox="0 0 94.9814 32" fill="none" xmlns="http://www.w3.org/2000/svg" xmlns:xlink="http://www.w3.org/1999/xlink">
	<desc>
			Created with Pixso.
	</desc>
	<defs/>
	<path id="Vector" d="M1.78649 4.75978C0.666435 3.84528 -0.0246964 1.71089 0.000679016 0.631449C0.004776 0.456991 0.109001 0.303532 0.271683 0.240393C1.26919 -0.146761 3.63836 -0.171776 5.03567 0.969093C6.30779 2.00775 6.99278 4.05961 7.3161 5.47697C7.40549 5.86884 7.08646 6.22341 6.68668 6.18184C5.12552 6.01951 2.81793 5.60193 1.78649 4.75978ZM15.153 27.7434C15.153 27.3995 15.4338 27.1222 15.7788 27.107C21.6418 26.8477 25.0181 22.9289 25.0181 17.4825C25.0181 12.036 21.6418 8.11717 15.7788 7.85793C15.4338 7.84267 15.153 7.56545 15.153 7.22153L15.153 2.10211C15.153 1.7582 14.873 1.4794 14.5276 1.4794L10.6632 1.4794C10.3178 1.4794 10.0378 1.7582 10.0378 2.10211L10.0378 7.22153C10.0378 7.56545 9.75705 7.84267 9.41197 7.85793C3.54901 8.11717 0.172714 12.036 0.172714 17.4825C0.172714 22.9289 3.54901 26.8477 9.41199 27.107C9.75705 27.1222 10.0378 27.3995 10.0378 27.7434L10.0378 31.3773C10.0378 31.7212 10.3178 32 10.6632 32L14.5276 32C14.873 32 15.153 31.7212 15.153 31.3773L15.153 27.7434ZM27.0065 32C26.661 32 26.381 31.7212 26.381 31.3773L26.381 8.64882C26.381 8.3049 26.661 8.0261 27.0065 8.0261L30.6881 8.0261C31.0336 8.0261 31.3136 8.3049 31.3136 8.64882L31.3136 10.4585C31.3136 10.5212 31.3646 10.572 31.4276 10.572C31.4698 10.572 31.5076 10.5508 31.5291 10.5145C31.7793 10.0917 33.4806 7.48055 37.3422 7.48055C42.8228 7.48055 45.5631 12.2087 45.5631 17.4825C45.5631 22.7562 42.8228 27.4844 37.3422 27.4844C33.6629 27.4844 31.9739 25.3507 31.7146 24.9899C31.6912 24.9574 31.6546 24.9384 31.6144 24.9384C31.5492 24.9384 31.4962 24.9911 31.4962 25.0561L31.4962 31.3773C31.4962 31.7212 31.2162 32 30.8708 32L27.0065 32ZM47.3073 17.4825C47.3073 23.0108 50.413 27.4844 56.807 27.4844C63.0837 27.4844 65.045 23.1887 65.5798 21.4619C65.6934 21.0953 65.409 20.7558 65.0236 20.7558L61.1625 20.7558C60.8615 20.7558 60.6007 20.9688 60.4948 21.2493C60.1815 22.0794 59.2827 23.6655 56.9897 23.6655C54.1603 23.6655 52.8835 21.8109 52.5296 19.2415C52.4801 18.8826 52.7693 18.5736 53.1332 18.5736L65.3132 18.5736C65.6451 18.5736 65.9196 18.3154 65.931 17.9851C65.9368 17.8159 65.9413 17.6357 65.9413 17.4825C65.9413 11.9541 63.0549 7.48055 56.807 7.48055C50.5591 7.48055 47.3073 11.9541 47.3073 17.4825ZM83.2121 8.0261C83.5575 8.0261 83.8375 8.3049 83.8375 8.64882L83.8375 18.5736C83.8375 21.8469 84.4952 23.3018 86.5047 23.3018C88.697 23.3018 89.8662 21.6651 89.8662 17.8462L89.8662 8.64882C89.8662 8.3049 90.1462 8.0261 90.4916 8.0261L94.356 8.0261C94.7014 8.0261 94.9814 8.3049 94.9814 8.64882L94.9814 26.3161C94.9814 26.66 94.7014 26.9388 94.356 26.9388L90.6743 26.9388C90.3289 26.9388 90.0489 26.66 90.0489 26.3161L90.0489 23.9537C90.0489 23.895 90.001 23.8473 89.942 23.8473C89.8966 23.8473 89.8568 23.8736 89.8401 23.9157C89.641 24.4153 88.2751 27.4844 84.7509 27.4844C81.7321 27.4844 80.1272 26.112 79.3452 23.9556C79.3219 23.8912 79.2607 23.8473 79.1919 23.8473C79.1284 23.8473 79.0709 23.8839 79.0423 23.9402C78.7542 24.5079 77.0776 27.4844 73.6071 27.4844C68.8572 27.4844 67.5784 24.0292 67.5784 19.6647L67.5784 8.64882C67.5784 8.3049 67.8584 8.0261 68.2038 8.0261L72.0682 8.0261C72.4136 8.0261 72.6936 8.3049 72.6936 8.64882L72.6936 18.5736C72.6936 21.8469 73.3513 23.3018 75.3608 23.3018C77.5531 23.3018 78.7223 21.6651 78.7223 17.8462L78.7223 8.64882C78.7223 8.3049 79.0023 8.0261 79.3477 8.0261L83.2121 8.0261ZM35.8807 11.2995C32.7751 11.2995 31.3136 14.0636 31.3136 17.4825C31.3136 20.9013 32.7751 23.6655 35.8807 23.6655C38.9864 23.6655 40.4479 20.9013 40.4479 17.4825C40.4479 14.0636 38.9864 11.2995 35.8807 11.2995ZM56.807 11.2995C59.0652 11.2995 60.1215 12.6418 60.5536 14.5947C60.6353 14.9643 60.3405 15.3002 59.9604 15.3002L53.3589 15.3002C52.9672 15.3002 52.6696 14.9445 52.7763 14.5693C53.3273 12.6302 54.5586 11.2995 56.807 11.2995ZM10.0378 22.8609C10.0378 23.2048 9.75639 23.488 9.41306 23.4504C6.59361 23.1414 5.28794 20.7082 5.28794 17.4825C5.28794 14.2567 6.59361 11.8235 9.41306 11.5145C9.75639 11.4769 10.0378 11.7601 10.0378 12.104L10.0378 22.8609ZM19.9029 17.4825C19.9029 20.7082 18.5972 23.1414 15.7778 23.4504C15.4344 23.488 15.153 23.2048 15.153 22.8609L15.153 12.104C15.153 11.7601 15.4344 11.4769 15.7778 11.5145C18.5972 11.8235 19.9029 14.2567 19.9029 17.4825Z" fill="#056B53" fill-opacity="1.000000" fill-rule="evenodd"/>
</svg>
